<?xml version="1.0" standalone="no"?>
<!DOCTYPE svg PUBLIC "-//W3C//DTD SVG 20010904//EN"
 "http://www.w3.org/TR/2001/REC-SVG-20010904/DTD/svg10.dtd">
<svg version="1.0" xmlns="http://www.w3.org/2000/svg"
 width="512.000000pt" height="512.000000pt" viewBox="0 0 512.000000 512.000000"
 preserveAspectRatio="xMidYMid meet">

<g transform="translate(0.000000,512.000000) scale(0.100000,-0.100000)"
fill="#000000" stroke="none">
<path d="M203 4107 c-53 -30 -127 -167 -162 -302 -12 -44 -26 -135 -33 -203
-14 -142 -2 -285 33 -412 29 -105 107 -261 175 -349 53 -70 56 -76 38 -85 -10
-6 -49 -40 -85 -76 -105 -104 -153 -226 -166 -421 -12 -190 29 -385 121 -574
145 -296 365 -423 567 -327 37 18 89 52 117 77 47 43 53 45 91 39 23 -4 41 -9
40 -13 0 -3 -42 -73 -92 -156 l-92 -150 -237 -3 -237 -2 -20 -27 c-12 -14 -21
-35 -21 -47 0 -27 33 -64 64 -72 12 -3 128 -4 257 -2 221 3 236 4 269 25 27
17 63 68 150 213 78 128 121 190 132 190 9 0 51 -5 93 -11 l75 -11 0 -129 0
-129 -91 0 c-50 0 -99 -5 -110 -11 -29 -15 -42 -57 -29 -90 17 -41 55 -51 174
-47 116 3 140 14 184 78 20 30 22 44 22 166 l0 134 33 0 c73 -1 169 -21 205
-44 243 -153 480 -167 649 -38 28 20 40 23 75 18 61 -9 555 11 739 29 263 27
563 82 769 141 46 13 89 24 95 24 6 0 42 -86 80 -191 75 -207 103 -251 179
-292 39 -21 55 -22 290 -25 137 -2 260 -1 272 2 31 8 64 45 64 72 0 12 -9 33
-20 47 l-21 26 -259 3 c-245 3 -261 4 -280 23 -16 16 -150 359 -150 383 0 4
46 25 103 46 131 51 367 170 390 197 20 24 22 67 4 89 -7 8 -40 39 -75 69 -34
29 -61 55 -60 56 2 2 118 8 258 15 140 6 271 15 291 20 44 12 67 49 53 88 -12
34 -113 102 -334 221 -289 158 -592 288 -905 389 -93 30 -175 60 -181 66 -6 6
-44 103 -84 216 -88 245 -109 291 -153 324 -96 73 -206 75 -295 3 -22 -17
-109 -110 -192 -205 l-152 -174 -47 6 c-589 76 -1423 21 -1981 -130 -61 -17
-117 -25 -155 -24 -115 3 -107 -1 -138 81 -15 41 -40 121 -55 179 -23 91 -26
125 -26 255 0 117 4 163 18 210 22 70 59 147 92 191 38 49 31 95 -18 120 -43
22 -78 4 -123 -60 -122 -177 -158 -471 -91 -741 13 -55 23 -101 21 -103 -5 -5
-64 94 -89 152 -64 145 -89 336 -66 512 18 150 48 234 135 380 24 40 14 79
-25 99 -35 18 -38 18 -67 2z m3141 -858 c25 -12 56 -64 58 -97 2 -24 -807
-1249 -1021 -1547 -107 -149 -137 -182 -203 -214 -104 -52 -214 -40 -368 40
-41 22 -81 43 -89 48 -10 7 176 224 753 879 421 479 776 878 788 886 27 19 48
20 82 5z m150 -336 c9 -26 16 -48 16 -51 0 -4 -83 8 -88 13 -5 5 42 85 50 85
3 0 13 -21 22 -47z m-1445 -69 c-95 -103 -409 -245 -758 -343 -194 -55 -209
-58 -217 -35 -21 67 -80 168 -123 211 l-49 50 126 26 c291 60 587 96 902 110
36 2 83 4 104 5 l39 2 -24 -26z m465 10 c76 -3 148 -9 158 -13 16 -6 -20 -51
-239 -300 l-258 -293 -75 6 c-112 10 -332 41 -543 78 l-188 32 193 66 c369
126 580 252 665 397 l26 44 61 -5 c33 -3 124 -8 200 -12z m944 -143 c63 -16
116 -31 118 -34 2 -2 46 -119 98 -259 l93 -256 -60 -4 c-66 -5 -97 -29 -97
-75 0 -59 44 -83 155 -83 l60 0 57 -158 c32 -86 59 -163 60 -171 2 -9 -29 -22
-102 -43 -209 -58 -460 -102 -745 -133 -152 -16 -615 -32 -615 -21 0 3 69 107
154 229 84 122 169 246 187 274 l34 53 60 0 c33 0 148 -5 255 -10 215 -11 240
-7 260 39 12 31 2 68 -24 90 -11 9 -77 16 -218 22 -112 5 -209 10 -216 12 -14
2 347 557 363 557 6 0 61 -13 123 -29z m-2721 -65 c74 -34 134 -95 169 -171
114 -248 32 -677 -170 -893 -70 -75 -118 -102 -181 -102 -64 0 -112 28 -183
105 -264 288 -293 872 -52 1031 75 49 134 64 250 61 91 -2 114 -7 167 -31z
m3433 -165 c85 -34 261 -115 390 -179 l235 -117 -95 -7 c-52 -4 -248 -9 -434
-10 l-339 -3 -83 225 c-46 124 -83 228 -84 232 0 10 231 -70 410 -141z m-2847
-263 c194 -38 184 -19 101 -174 -95 -180 -289 -454 -321 -454 -13 0 -111 19
-131 25 -9 3 -6 18 13 55 73 145 125 353 125 503 0 88 0 89 23 83 12 -3 97
-20 190 -38z m550 -89 c92 -12 167 -25 167 -28 0 -9 -491 -565 -503 -570 -11
-4 -198 17 -229 25 -14 4 -5 22 51 97 89 121 178 267 242 400 49 101 54 108
78 103 14 -3 101 -15 194 -27z m2469 -176 c39 -32 80 -66 91 -75 22 -17 20
-18 -73 -61 -118 -54 -260 -111 -265 -106 -10 11 -104 283 -99 290 3 5 66 9
141 9 l136 0 69 -57z"/>
<path d="M540 2509 c-93 -18 -184 -103 -210 -197 -13 -49 -13 -185 1 -231 39
-132 185 -219 319 -190 125 27 208 120 218 245 7 86 -2 112 -42 129 -22 9 -36
23 -40 40 -8 31 -70 102 -97 110 -12 4 -19 15 -19 31 0 23 -31 64 -49 64 -5 0
-15 2 -23 4 -7 2 -33 0 -58 -5z m141 -162 c63 -48 33 -147 -45 -147 -71 0
-105 96 -50 139 30 23 71 27 95 8z"/>
</g>
</svg>
